# xmcd
#
# Track frame offsets:
#	182
#	9705
#	29480
#	46090
#	63170
#	72652
#	96810
#	113267
#
# Disc length: 1712 seconds
#
# Revision: 3
# Processed by: cddbd v1.5.2PL0 Copyright (c) Steve Scherf et al.
# Submitted via: audiograbber 1.83.01
#
DISCID=6006ae08
DTITLE=Al Jarreau - Ain't No Sunshine (All songs written by Bill Withers)
DYEAR=1994
DGENRE=Jazz
TTITLE0=Ain't no sunshine
TTITLE1=Lean on me
TTITLE2=Use me
TTITLE3=Kissing my love
TTITLE4=Grandmama's hands
TTITLE5=You
TTITLE6=Lonely town, lonely street
TTITLE7=The same love that made me laugh
EXTD=1994
EXTT0=
EXTT1=
EXTT2=
EXTT3=
EXTT4=
EXTT5=
EXTT6=
EXTT7=
PLAYORDER=
